HIERARCHY
ROOT reference
{
  OFFSET 0 0 0
  CHANNELS 6 Xposition Yposition Zposition Zrotation Xrotation Yrotation
  JOINT Hips
  {
    OFFSET 346.547 88.4868 223.89
    CHANNELS 3 Zrotation Xrotation Yrotation
    JOINT RightUpLeg
    {
      OFFSET -9.27468 -1.51611 -0.00175448
      CHANNELS 3 Zrotation Xrotation Yrotation
      JOINT RightLeg
      {
        OFFSET -0.00464511 -41.8738 0.0184652
        CHANNELS 3 Zrotation Xrotation Yrotation
        JOINT RightFoot
        {
          OFFSET -0.626239 -42.3044 -0.171503
          CHANNELS 3 Zrotation Xrotation Yrotation
          End Site
          {
            OFFSET 0 -7.69 17.5
          }
        }
      }
    }
    JOINT LeftUpLeg
    {
      OFFSET 9.30083 -1.68454 -0.0454748
      CHANNELS 3 Zrotation Xrotation Yrotation
      JOINT LeftLeg
      {
        OFFSET 0.0692631 -41.8513 -0.097029
        CHANNELS 3 Zrotation Xrotation Yrotation
        JOINT LeftFoot
        {
          OFFSET 0.520945 -41.523 0.446349
          CHANNELS 3 Zrotation Xrotation Yrotation
          End Site
          {
            OFFSET 0 -7.69 17.5
          }
        }
      }
    }
    JOINT Spine
    {
      OFFSET 0.0770133 14.2992 0.0590021
      CHANNELS 3 Zrotation Xrotation Yrotation
      JOINT Spine1
      {
        OFFSET 0.0471461 9.71665 0.020973
        CHANNELS 3 Zrotation Xrotation Yrotation
        JOINT Spine2
        {
          OFFSET 0.051283 10.117 0.000913966
          CHANNELS 3 Zrotation Xrotation Yrotation
          JOINT Spine3
          {
            OFFSET 0.0447963 9.71088 0.00221408
            CHANNELS 3 Zrotation Xrotation Yrotation
            JOINT Neck
            {
              OFFSET 0.115655 10.3749 0.0448519
              CHANNELS 3 Zrotation Xrotation Yrotation
              JOINT Head
              {
                OFFSET 0.0937003 9.47807 0.0215077
                CHANNELS 3 Zrotation Xrotation Yrotation
                End Site
                {
                  OFFSET 0 15.95 0
                }
              }
            }
            JOINT RightShoulder
            {
              OFFSET -3.17023 6.91072 -0.0050072
              CHANNELS 3 Zrotation Xrotation Yrotation
              JOINT RightArm
              {
                OFFSET -12.7573 0.00694711 0.0313031
                CHANNELS 3 Zrotation Xrotation Yrotation
                JOINT RightForeArm
                {
                  OFFSET -26.5152 -0.0619338 -0.0331286
                  CHANNELS 3 Zrotation Xrotation Yrotation
                  JOINT RightHand
                  {
                    OFFSET -25.9971 0.0398378 -0.0269922
                    CHANNELS 3 Zrotation Xrotation Yrotation
                    JOINT RightHandThumb1
                    {
                      OFFSET -2.48905 0.190105 3.12053
                      CHANNELS 3 Zrotation Xrotation Yrotation
                      JOINT RightHandThumb2
                      {
                        OFFSET -3.68274 0 0
                        CHANNELS 3 Zrotation Xrotation Yrotation
                        JOINT RightHandThumb3
                        {
                          OFFSET -2.55832 0 0
                          CHANNELS 3 Zrotation Xrotation Yrotation
                          End Site
                          {
                            OFFSET -2.194 0 0
                          }
                        }
                      }
                    }
                    JOINT RightInHandIndex
                    {
                      OFFSET -3.22368 0.508421 1.97842
                      CHANNELS 3 Zrotation Xrotation Yrotation
                      JOINT RightHandIndex1
                      {
                        OFFSET -5.21684 -0.091368 0.999158
                        CHANNELS 3 Zrotation Xrotation Yrotation
                        JOINT RightHandIndex2
                        {
                          OFFSET -3.61937 0 0
                          CHANNELS 3 Zrotation Xrotation Yrotation
                          JOINT RightHandIndex3
                          {
                            OFFSET -2.0521 0 0
                            CHANNELS 3 Zrotation Xrotation Yrotation
                            End Site
                            {
                              OFFSET -1.805 0 0
                            }
                          }
                        }
                      }
                    }
                    JOINT RightInHandMiddle
                    {
                      OFFSET -3.38211 0.517263 0.756737
                      CHANNELS 3 Zrotation Xrotation Yrotation
                      JOINT RightHandMiddle1
                      {
                        OFFSET -5.17411 -0.084 0.313895
                        CHANNELS 3 Zrotation Xrotation Yrotation
                        JOINT RightHandMiddle2
                        {
                          OFFSET -3.94947 0 0
                          CHANNELS 3 Zrotation Xrotation Yrotation
                          JOINT RightHandMiddle3
                          {
                            OFFSET -2.47579 0 0
                            CHANNELS 3 Zrotation Xrotation Yrotation
                            End Site
                            {
                              OFFSET -1.975 0 0
                            }
                          }
                        }
                      }
                    }
                    JOINT RightInHandRing
                    {
                      OFFSET -3.36516 0.537895 -0.128947
                      CHANNELS 3 Zrotation Xrotation Yrotation
                      JOINT RightHandRing1
                      {
                        OFFSET -4.63474 -0.022105 -0.478947
                        CHANNELS 3 Zrotation Xrotation Yrotation
                        JOINT RightHandRing2
                        {
                          OFFSET -3.44238 0 0
                          CHANNELS 3 Zrotation Xrotation Yrotation
                          JOINT RightHandRing3
                          {
                            OFFSET -2.3881 0 0
                            CHANNELS 3 Zrotation Xrotation Yrotation
                            End Site
                            {
                              OFFSET -1.857 0 0
                            }
                          }
                        }
                      }
                    }
                    JOINT RightInHandPinky
                    {
                      OFFSET -3.16105 0.469368 -1.20179
                      CHANNELS 3 Zrotation Xrotation Yrotation
                      JOINT RightHandPinky1
                      {
                        OFFSET -4.14105 -0.022105 -1.09053
                        CHANNELS 3 Zrotation Xrotation Yrotation
                        JOINT RightHandPinky2
                        {
                          OFFSET -2.75653 0 0
                          CHANNELS 3 Zrotation Xrotation Yrotation
                          JOINT RightHandPinky3
                          {
                            OFFSET -1.74189 0 0
                            CHANNELS 3 Zrotation Xrotation Yrotation
                            End Site
                            {
                              OFFSET -1.645 0 0
                            }
                          }
                        }
                      }
                    }
                  }
                }
              }
            }
            JOINT LeftShoulder
            {
              OFFSET 3.25178 6.92057 -0.0384945
              CHANNELS 3 Zrotation Xrotation Yrotation
              JOINT LeftArm
              {
                OFFSET 12.8462 -0.0383255 -0.0637898
                CHANNELS 3 Zrotation Xrotation Yrotation
                JOINT LeftForeArm
                {
                  OFFSET 26.4888 -0.0608964 -0.0673835
                  CHANNELS 3 Zrotation Xrotation Yrotation
                  JOINT LeftHand
                  {
                    OFFSET 25.9932 -0.0402352 -0.0274148
                    CHANNELS 3 Zrotation Xrotation Yrotation
                    JOINT LeftHandThumb1
                    {
                      OFFSET 2.48905 0.190105 3.12053
                      CHANNELS 3 Zrotation Xrotation Yrotation
                      JOINT LeftHandThumb2
                      {
                        OFFSET 3.68274 0 0
                        CHANNELS 3 Zrotation Xrotation Yrotation
                        JOINT LeftHandThumb3
                        {
                          OFFSET 2.55832 0 0
                          CHANNELS 3 Zrotation Xrotation Yrotation
                          End Site
                          {
                            OFFSET 2.194 0 0
                          }
                        }
                      }
                    }
                    JOINT LeftInHandIndex
                    {
                      OFFSET 3.22368 0.508421 1.97842
                      CHANNELS 3 Zrotation Xrotation Yrotation
                      JOINT LeftHandIndex1
                      {
                        OFFSET 5.21684 -0.091368 0.999158
                        CHANNELS 3 Zrotation Xrotation Yrotation
                        JOINT LeftHandIndex2
                        {
                          OFFSET 3.61937 0 0
                          CHANNELS 3 Zrotation Xrotation Yrotation
                          JOINT LeftHandIndex3
                          {
                            OFFSET 2.0521 0 0
                            CHANNELS 3 Zrotation Xrotation Yrotation
                            End Site
                            {
                              OFFSET 1.805 0 0
                            }
                          }
                        }
                      }
                    }
                    JOINT LeftInHandMiddle
                    {
                      OFFSET 3.38211 0.517263 0.756737
                      CHANNELS 3 Zrotation Xrotation Yrotation
                      JOINT LeftHandMiddle1
                      {
                        OFFSET 5.17411 -0.084 0.313895
                        CHANNELS 3 Zrotation Xrotation Yrotation
                        JOINT LeftHandMiddle2
                        {
                          OFFSET 3.94947 0 0
                          CHANNELS 3 Zrotation Xrotation Yrotation
                          JOINT LeftHandMiddle3
                          {
                            OFFSET 2.47579 0 0
                            CHANNELS 3 Zrotation Xrotation Yrotation
                            End Site
                            {
                              OFFSET 1.975 0 0
                            }
                          }
                        }
                      }
                    }
                    JOINT LeftInHandRing
                    {
                      OFFSET 3.36516 0.537895 -0.128947
                      CHANNELS 3 Zrotation Xrotation Yrotation
                      JOINT LeftHandRing1
                      {
                        OFFSET 4.63474 -0.022105 -0.478947
                        CHANNELS 3 Zrotation Xrotation Yrotation
                        JOINT LeftHandRing2
                        {
                          OFFSET 3.44238 0 0
                          CHANNELS 3 Zrotation Xrotation Yrotation
                          JOINT LeftHandRing3
                          {
                            OFFSET 2.3881 0 0
                            CHANNELS 3 Zrotation Xrotation Yrotation
                            End Site
                            {
                              OFFSET 1.857 0 0
                            }
                          }
                        }
                      }
                    }
                    JOINT LeftInHandPinky
                    {
                      OFFSET 3.16105 0.469368 -1.20179
                      CHANNELS 3 Zrotation Xrotation Yrotation
                      JOINT LeftHandPinky1
                      {
                        OFFSET 4.14105 -0.022105 -1.09053
                        CHANNELS 3 Zrotation Xrotation Yrotation
                        JOINT LeftHandPinky2
                        {
                          OFFSET 2.75653 0 0
                          CHANNELS 3 Zrotation Xrotation Yrotation
                          JOINT LeftHandPinky3
                          {
                            OFFSET 1.74189 0 0
                            CHANNELS 3 Zrotation Xrotation Yrotation
                            End Site
                            {
                              OFFSET 1.645 0 0
                            }
                          }
                        }
                      }
                    }
                  }
                }
              }
            }
          }
        }
      }
    }
  }
}
MOTION
Frames: 2
Frame Time: 0.00833333
3.000000000000000000e+02 0.000000000000000000e+00 0.000000000000000000e+00 0.000000000000000000e+00 0.000000000000000000e+00 0.000000000000000000e+00 -6.717878703601215529e-02 -5.881042519655963613e-02 -2.075291044203086965e-01 4.163563008275134036e-02 1.015490157124496473e-01 1.477880840293106270e-02 -1.000007871952313110e-01 -1.331433608663121215e-02 2.227723497467219982e-01 -2.722360578795492494e-02 2.193497042176329598e-02 -1.310912299446270052e-02 -1.733534440490425849e-02 1.250974709553890896e-01 1.764482973810495292e-01 6.772244704874211263e-02 3.041257928080547818e-02 -7.592459930537816259e-02 -7.377447108664447750e-02 -2.860118860574508218e-02 4.746244902217632705e-02 -4.928611143356377566e-02 -2.616541936170378030e-02 -6.728528433282957022e-02 -1.125571584073811228e-02 -1.122096264463980954e-02 -1.654264881432510048e-02 -1.837754212749572943e-02 -1.733520906252778923e-02 -2.478069170623974429e-02 -7.015564671406087911e-05 -5.519819506241016799e-04 6.361769361791048266e-03 1.257288880111409601e-02 -9.921755270732489362e-03 1.686394210473248778e-01 3.053353721904304967e-03 1.177420708482249806e-02 2.740025442972091746e-02 -7.392165574256334692e-02 3.688407113720543890e-02 3.218028570532107113e-01 4.020626834916879444e-02 -9.118859454924875541e-03 1.051133453265241935e-02 -8.753785061283711477e-02 -3.046370215547236290e-02 -1.350761010702813125e-01 -1.503033933299926517e-01 1.988855820475287917e-01 -8.635763681094973249e-03 0.000000000000000000e+00 0.000000000000000000e+00 0.000000000000000000e+00 3.098355644171512360e-15 3.398080302902077013e-15 0.000000000000000000e+00 -6.966684246096690858e-15 -1.864531211578916270e-15 0.000000000000000000e+00 2.928944578378503692e-15 4.777744355691215912e-16 -2.250895381409242022e-16 0.000000000000000000e+00 0.000000000000000000e+00 0.000000000000000000e+00 0.000000000000000000e+00 3.470596801022785000e-16 3.495383759530068878e-16 0.000000000000000000e+00 5.907444843661149530e-16 -1.047455068314858571e-15 2.928944578378503692e-15 4.777744355691215912e-16 -2.250895381409242022e-16 0.000000000000000000e+00 -3.174521508524323643e-16 5.235006827647602600e-16 0.000000000000000000e+00 7.369522904970782227e-17 8.326290762477586996e-17 0.000000000000000000e+00 1.354750408827833454e-15 4.720769824157371541e-16 2.928944578378503692e-15 4.777744355691215912e-16 -2.250895381409242022e-16 0.000000000000000000e+00 0.000000000000000000e+00 0.000000000000000000e+00 0.000000000000000000e+00 1.194048271949825392e-16 1.678973721539801480e-16 0.000000000000000000e+00 -3.344142020725599363e-18 -1.168712213631231379e-16 2.928944578378503692e-15 4.777744355691215912e-16 -2.250895381409242022e-16 0.000000000000000000e+00 0.000000000000000000e+00 0.000000000000000000e+00 0.000000000000000000e+00 3.401970928460956798e-16 -8.400447405540443018e-16 0.000000000000000000e+00 -5.167534791084009862e-17 -1.054313838899779706e-15 1.848324376446732475e-01 1.719547434072367723e-02 5.661918847646482122e-01 1.149207765427053690e-01 8.390312244520718721e-02 -3.179471209700697187e-01 9.047968790174092391e-01 -5.689231964351423865e-02 1.061162261720961064e+00 1.475166068292117216e-01 2.632330640119110443e-01 -5.710962888822729289e-01 0.000000000000000000e+00 0.000000000000000000e+00 0.000000000000000000e+00 1.615263873469440470e-15 -3.092687923244508531e-15 0.000000000000000000e+00 -1.495185447961624368e-16 -4.753198297254676010e-15 0.000000000000000000e+00 1.355392185828485903e-15 4.984981058301042895e-16 1.025386622745383566e-15 0.000000000000000000e+00 0.000000000000000000e+00 0.000000000000000000e+00 0.000000000000000000e+00 -2.298093326956763982e-15 1.456819386084574869e-15 0.000000000000000000e+00 -5.837324089784124874e-16 2.402169943393164640e-15 1.355392185828485903e-15 4.984981058301042895e-16 1.025386622745383566e-15 0.000000000000000000e+00 2.026544822407679126e-15 1.428703819127956548e-16 0.000000000000000000e+00 -1.287843076746429651e-16 2.087463838230258304e-15 0.000000000000000000e+00 3.440646450433068521e-16 2.159908071962168024e-15 1.355392185828485903e-15 4.984981058301042895e-16 1.025386622745383566e-15 0.000000000000000000e+00 0.000000000000000000e+00 0.000000000000000000e+00 0.000000000000000000e+00 -9.694340195353918384e-17 5.721592163494508124e-17 0.000000000000000000e+00 -1.099040594089801340e-15 2.905765837851117593e-16 1.355392185828485903e-15 4.984981058301042895e-16 1.025386622745383566e-15 0.000000000000000000e+00 0.000000000000000000e+00 0.000000000000000000e+00 0.000000000000000000e+00 9.580130896867589113e-16 -4.577938124115243129e-16 0.000000000000000000e+00 8.036898886670915769e-16 -7.008495879416299870e-16
3.000000000000000000e+02 0.000000000000000000e+00 0.000000000000000000e+00 0.000000000000000000e+00 0.000000000000000000e+00 0.000000000000000000e+00 -7.549827542163441152e-02 -6.796776016320828229e-02 -2.298998321644434017e-01 5.041873753516710500e-03 8.888824435536503421e-02 1.672623898818067778e-01 -1.341960611047119702e-02 1.324976850146362961e-02 6.975827460137729030e-02 -3.221972230531514741e-02 2.026915129963058684e-02 -1.749057046611758245e-02 -3.060066746955773104e-02 1.350609744703308857e-01 2.030290718882793444e-01 1.245709818187729356e-01 6.458456820678025456e-02 -1.081221926329407473e-01 -1.204799911742369944e-01 -5.466574095005442835e-02 4.132965797758285376e-02 -5.729494456815449610e-02 -2.795002127767503425e-02 -6.856478868545150263e-02 -1.318698695241533533e-02 -1.210476410049676592e-02 -1.677177881602341658e-02 -2.151462328300576127e-02 -1.922765552333612418e-02 -2.480553900646061127e-02 3.356522718870584175e-04 -6.495221804228021659e-04 5.331442123282043033e-03 1.428139961232456796e-02 -2.067925269952654386e-03 1.918827956556317937e-01 2.940139134084480965e-03 -6.381811287231941611e-03 9.611764256367824610e-02 -8.246797805081566846e-02 3.953456442834278606e-02 3.219646323376011976e-01 9.976410518233291835e-02 -1.839729092902779584e-02 5.347985793196732146e-02 -8.139594757455727303e-02 -2.763449120688070762e-02 -1.551331158353441431e-01 -1.589276511613827714e-01 2.484323602536177844e-01 -5.030288828640946605e-03 0.000000000000000000e+00 0.000000000000000000e+00 0.000000000000000000e+00 8.268030407188147798e-16 2.404009512410040549e-15 0.000000000000000000e+00 -3.358829592464525582e-15 1.390562047533748539e-15 0.000000000000000000e+00 4.806628962154025682e-15 7.302718072734948633e-16 1.829472353022942595e-17 0.000000000000000000e+00 0.000000000000000000e+00 0.000000000000000000e+00 0.000000000000000000e+00 5.986187585968721184e-17 -2.239621087622377566e-16 0.000000000000000000e+00 -1.232598926755360022e-15 -1.227333140173983069e-15 4.806628962154025682e-15 7.302718072734948633e-16 1.829472353022942595e-17 0.000000000000000000e+00 -1.538636563180485043e-16 -3.349780070469354745e-16 0.000000000000000000e+00 1.742388751659855569e-16 2.559964213047406576e-16 0.000000000000000000e+00 1.382497659287572922e-15 3.749249284218349346e-16 4.806628962154025682e-15 7.302718072734948633e-16 1.829472353022942595e-17 0.000000000000000000e+00 0.000000000000000000e+00 0.000000000000000000e+00 0.000000000000000000e+00 1.839555857774981444e-16 3.189151690060848051e-17 0.000000000000000000e+00 -1.715096612025997761e-16 1.837312422856439876e-17 4.806628962154025682e-15 7.302718072734948633e-16 1.829472353022942595e-17 0.000000000000000000e+00 0.000000000000000000e+00 0.000000000000000000e+00 0.000000000000000000e+00 3.832911412882549752e-16 -1.102900094336860663e-15 0.000000000000000000e+00 -5.597618645720965104e-16 8.456833255134424074e-16 1.680702463457291185e-01 1.841415642174345363e-02 5.119590694274231968e-01 1.066175749811114903e-01 7.705643896082081667e-02 -2.527460896792098066e-01 1.007496427721463306e+00 3.445800773167626702e-02 1.626013934321439480e+00 9.163889758221628601e-02 2.998926753281661584e-01 -6.151576339171158647e-01 0.000000000000000000e+00 0.000000000000000000e+00 0.000000000000000000e+00 3.119657064873254535e-15 -2.011672285422067199e-15 0.000000000000000000e+00 1.297081975771751898e-15 -3.496701268192976016e-15 0.000000000000000000e+00 1.308664612194614398e-15 4.813060755394301296e-16 1.653847277555413081e-16 0.000000000000000000e+00 0.000000000000000000e+00 0.000000000000000000e+00 0.000000000000000000e+00 6.987430874890242594e-17 1.524830158794396441e-15 0.000000000000000000e+00 -3.729161328781453653e-16 1.187068118511687017e-15 1.308664612194614398e-15 4.813060755394301296e-16 1.653847277555413081e-16 0.000000000000000000e+00 2.037213010134457471e-15 -1.427592887087152469e-15 0.000000000000000000e+00 3.975399061233218208e-16 7.774806499850218440e-16 0.000000000000000000e+00 1.847354149041534074e-16 5.848630497587860024e-16 1.308664612194614398e-15 4.813060755394301296e-16 1.653847277555413081e-16 0.000000000000000000e+00 0.000000000000000000e+00 0.000000000000000000e+00 0.000000000000000000e+00 -7.321754323530491233e-17 1.197519496159540801e-16 0.000000000000000000e+00 -3.477576118118172120e-16 -3.459847800943238328e-17 1.308664612194614398e-15 4.813060755394301296e-16 1.653847277555413081e-16 0.000000000000000000e+00 0.000000000000000000e+00 0.000000000000000000e+00 0.000000000000000000e+00 8.212712697711530288e-16 -4.150035816676480439e-16 0.000000000000000000e+00 8.527245710534303037e-16 -9.152528709458687868e-16
